<?xml version="1.0" standalone="no"?>
<!DOCTYPE svg PUBLIC "-//W3C//DTD SVG 20010904//EN"
 "http://www.w3.org/TR/2001/REC-SVG-20010904/DTD/svg10.dtd">
<svg version="1.0" xmlns="http://www.w3.org/2000/svg"
 width="512.000000pt" height="233.000000pt" viewBox="0 0 512.000000 233.000000"
 preserveAspectRatio="xMidYMid meet">

<g transform="translate(0.000000,233.000000) scale(0.100000,-0.100000)"
fill="#000000" stroke="none">
<path d="M2780 2179 c-547 -127 -810 -188 -980 -226 -92 -21 -114 -26 -720
-167 -300 -70 -662 -151 -804 -181 -142 -30 -260 -56 -262 -57 -1 -2 101 -70
227 -153 128 -84 227 -155 225 -162 -3 -6 -67 -107 -144 -225 -76 -117 -142
-218 -145 -225 -5 -8 11 -7 56 3 34 7 170 36 302 65 132 28 269 58 305 66 36
8 90 21 120 28 322 74 1518 350 1560 360 175 39 1028 237 1041 241 17 5 9 44
-148 707 -9 37 -21 67 -27 66 -6 0 -279 -63 -606 -140z m190 -181 c0 -26 -16
-35 -68 -40 -62 -6 -98 -29 -130 -84 -19 -33 -22 -50 -20 -114 4 -90 21 -129
69 -154 32 -17 39 -18 80 -5 l44 14 5 95 c5 89 6 95 28 98 22 3 22 2 22 -106
l0 -110 -52 -22 c-68 -29 -146 -25 -184 11 -44 40 -64 95 -64 182 0 123 44
194 146 231 50 19 124 21 124 4z m-359 -278 c11 -220 9 -229 -28 -230 -7 0
-30 27 -50 61 -21 33 -64 101 -97 152 l-58 92 6 -171 7 -171 -23 -6 c-12 -4
-23 -5 -24 -4 -1 1 -5 99 -9 218 l-8 217 22 7 c13 4 24 5 25 3 2 -1 46 -72 99
-156 l95 -152 -5 174 c-6 165 -5 174 13 178 10 2 20 4 22 3 1 -1 7 -98 13
-215z m-386 -75 c4 -112 5 -211 2 -220 -4 -8 -16 -15 -27 -15 -18 0 -20 6 -20
78 0 42 -3 141 -7 220 l-6 142 25 0 26 0 7 -205z m-168 19 c21 -274 21 -279
-3 -282 -19 -3 -22 3 -28 60 -3 35 -9 112 -13 171 l-6 108 -45 -138 c-42 -129
-55 -156 -75 -150 -4 1 -32 52 -61 112 l-54 110 -1 -166 c-1 -171 -3 -179 -42
-179 -5 0 -9 93 -9 219 0 230 0 231 44 231 7 0 38 -57 71 -126 l58 -125 44
133 c23 73 43 139 43 146 0 13 38 33 55 28 6 -1 15 -70 22 -152z m-482 3 c40
-40 55 -89 55 -182 0 -136 -69 -225 -179 -233 -50 -4 -61 -1 -88 22 -42 36
-64 95 -64 178 -1 153 72 248 190 248 47 0 57 -4 86 -33z m-347 -49 c-3 -20
-11 -24 -59 -29 -106 -11 -154 -72 -153 -194 1 -91 24 -142 72 -162 32 -13 41
-13 96 5 63 21 76 20 76 -2 0 -21 -69 -49 -130 -53 -69 -5 -110 18 -141 79
-32 61 -33 195 -2 253 42 79 112 123 201 124 39 1 43 -1 40 -21z"/>
<path d="M1430 1643 c-48 -25 -80 -91 -81 -169 -2 -121 31 -179 101 -178 71 2
119 59 127 154 15 160 -49 243 -147 193z"/>
<path d="M4710 1493 c-182 -38 -2217 -504 -2525 -577 -55 -13 -212 -50 -350
-81 -137 -32 -252 -59 -253 -60 -3 -3 163 -734 172 -761 3 -7 96 10 278 53
150 35 305 71 343 79 39 9 95 22 125 29 30 7 89 21 130 30 127 29 169 39 735
170 303 70 575 133 605 140 30 7 116 26 190 43 74 17 194 45 265 62 123 30
648 140 667 140 27 0 -14 31 -204 155 -117 76 -219 144 -227 151 -11 10 7 43
104 190 179 271 187 284 173 283 -7 0 -110 -21 -228 -46z m-660 -523 l0 -149
-37 -10 c-21 -6 -40 -7 -44 -3 -4 4 -8 72 -10 151 l-4 145 25 7 c14 4 35 7 48
8 22 1 22 0 22 -149z m-165 -107 l7 -213 -26 -10 c-15 -5 -31 -10 -36 -10 -5
0 -42 48 -81 108 -39 59 -74 110 -78 114 -3 4 -3 -48 0 -115 7 -134 2 -147
-52 -147 -27 0 -27 1 -31 78 -11 214 -9 362 4 362 7 0 23 3 35 6 19 5 31 -8
93 -102 40 -60 74 -111 77 -114 3 -3 3 52 0 123 l-5 127 27 6 c14 3 31 7 36 9
6 1 13 0 16 -4 4 -3 10 -102 14 -218z m-435 91 c44 -37 60 -75 67 -154 10
-121 -32 -211 -121 -255 -83 -42 -154 -28 -194 37 -29 48 -44 143 -32 206 23
125 91 190 202 191 36 1 53 -5 78 -25z m-401 -81 c47 -35 66 -88 66 -188 0
-68 -5 -98 -19 -125 -43 -81 -103 -120 -186 -120 -91 0 -139 70 -140 200 0 97
12 137 55 187 59 69 163 90 224 46z m-371 -49 c15 -4 22 -14 22 -29 0 -44 -9
-54 -44 -48 -44 7 -106 -20 -106 -46 0 -24 25 -41 93 -66 63 -24 87 -55 87
-115 0 -84 -57 -139 -165 -159 -73 -14 -105 -5 -105 28 0 40 11 48 72 53 67 5
98 27 98 69 0 24 -6 30 -57 49 -84 31 -113 62 -113 122 0 75 53 125 150 141
41 7 44 7 68 1z m1382 -94 c0 -48 -1 -49 -35 -56 -52 -9 -65 -1 -65 45 0 34 4
41 28 49 15 6 37 11 50 11 20 1 22 -4 22 -49z"/>
<path d="M3322 890 c-68 -28 -83 -230 -21 -274 27 -19 67 -7 93 27 37 50 34
199 -5 238 -21 21 -32 22 -67 9z"/>
<path d="M2903 788 c-41 -46 -53 -120 -32 -204 8 -31 19 -49 35 -56 34 -16 79
6 98 47 28 57 17 206 -16 227 -24 15 -64 8 -85 -14z"/>
</g>
</svg>
